<svg width="607" height="425" viewBox="0 0 607 425" fill="none" xmlns="http://www.w3.org/2000/svg">
<path fill-rule="evenodd" clip-rule="evenodd" d="M171.795 377.587C142.23 377.213 118.405 365.75 94.5368 352.794C16.2573 310.245 -11.5056 241.508 39.2627 171.697C118.217 63.4303 307.268 -11.4154 456.35 16.2667C489.366 22.3629 533.968 27.2861 567.525 60.7622C598.741 91.8879 598.584 129.972 585.724 165.599C572.639 202.125 546.345 236.156 525.26 258.153C433.066 354.129 245.473 444.371 72.2973 404.693C68.7389 403.935 65.2478 405.518 64.3162 408.233C63.3846 410.949 65.2365 413.778 68.5425 414.543C246.804 455.377 440.401 363.139 535.292 264.366C561.525 236.939 595.567 191.439 604.327 145.13C610.229 113.481 604.501 81.4704 577.441 54.2648C541.799 18.6028 494.393 12.7913 459.344 6.29573C305.436 -22.2979 109.884 54.764 28.5067 166.577C-26.1516 241.614 3.27556 315.577 87.4575 361.31C113.126 375.374 139.242 387.413 171.335 387.816C174.873 387.858 177.837 385.602 177.756 382.785C177.926 379.96 175.081 377.637 171.795 377.587Z" fill="url(#paint0_linear_323_411)"/>
<defs>
<linearGradient id="paint0_linear_323_411" x1="3.95311" y1="354.577" x2="590.918" y2="42.2213" gradientUnits="userSpaceOnUse">
<stop stop-color="#6BCB3A"/>
<stop offset="1" stop-color="#84EB86"/>
</linearGradient>
</defs>
</svg>
