<svg width="101" height="101" viewBox="0 0 101 101" fill="none" xmlns="http://www.w3.org/2000/svg">
<path d="M60.3029 83.2897C57.3281 85.1326 53.8228 85.8822 50.371 85.4137C48.9533 85.2652 47.5547 84.9662 46.198 84.5216C44.8501 84.0925 43.5603 83.4932 42.3588 82.7375C40.8731 81.9338 39.5726 80.8174 38.5437 79.4624C37.5148 78.1074 36.7811 76.5449 36.3913 74.8789C36.3913 73.647 36.0575 72.5001 36.0575 71.2258C36.2598 68.0056 36.1199 64.7726 35.6402 61.5831C35.2901 59.7909 34.4176 58.1478 33.1364 56.8679C32.5436 56.3448 31.7922 56.0448 31.0081 56.0184C30.1525 56.0672 29.3016 56.1808 28.4626 56.3582H20.3669H16.945C16.2285 55.1762 15.6007 53.9408 15.0671 52.6625C14.5955 51.4354 14.2868 50.1497 14.149 48.8394C14.0242 47.8381 14.0242 46.8248 14.149 45.8235C14.2907 44.83 14.5572 43.8592 14.9419 42.9349C15.8386 40.1126 17.7056 37.7143 20.1999 36.1808C22.0883 35.2067 24.1756 34.6991 26.2926 34.6991C28.4096 34.6991 30.4968 35.2067 32.3852 36.1808C34.5135 37.1578 46.7822 43.7845 38.6031 55.5511C38.3985 55.8722 38.3276 56.2629 38.4059 56.6372C38.4841 57.0116 38.7051 57.339 39.0204 57.5476C40.4231 58.8049 41.6702 60.2314 42.7344 61.7955C43.7819 63.3452 44.6501 65.0129 45.3217 66.7655C45.982 68.5209 46.5121 70.3242 46.9074 72.1603C47.3332 73.7059 48.0566 75.1498 49.0357 76.4082C49.9706 77.5294 51.2096 78.3451 52.5976 78.7531C53.9856 79.1611 55.4611 79.1434 56.8392 78.702C57.4765 78.5427 58.1036 78.3441 58.7171 78.1073L60.3863 77.3002C60.5781 77.211 60.7508 77.0841 60.8944 76.927C61.0381 76.7698 61.1499 76.5853 61.2235 76.3842C61.2972 76.183 61.3312 75.969 61.3235 75.7545C61.3159 75.54 61.2669 75.329 61.1792 75.1338C61.0915 74.9386 60.9669 74.7628 60.8125 74.6166C60.6581 74.4704 60.4769 74.3565 60.2793 74.2816C60.0817 74.2066 59.8715 74.172 59.6607 74.1798C59.45 74.1875 59.2428 74.2375 59.051 74.3267L56.3385 74.8789C55.6983 74.9946 55.0389 74.9199 54.4394 74.6637C53.8398 74.4076 53.3256 73.9808 52.9583 73.4346C52.3713 72.3069 51.9762 71.0861 51.7899 69.824C51.408 68.1198 50.8338 66.4663 50.0789 64.8964C48.9217 62.9357 47.519 61.1365 45.9059 59.5441C44.7282 58.4604 43.4413 57.5064 42.0667 56.698C42.0667 56.698 42.4005 56.698 42.5257 56.4007C49.286 46.6306 43.4021 36.2657 34.6804 31.8055C32.4922 30.6082 30.0885 29.8742 27.6142 29.6479C25.1399 29.4216 22.6462 29.7076 20.2834 30.4886C17.9607 31.3978 15.8852 32.8592 14.2301 34.7509C12.5749 36.6426 11.3882 38.9097 10.7689 41.3632C10.4291 42.6391 10.233 43.9502 10.1846 45.2712C10.0932 46.6096 10.1916 47.9544 10.4768 49.2642C10.8241 50.8581 11.3711 52.3999 12.1042 53.8519C12.5697 54.7177 13.0853 55.5546 13.6483 56.3582C12.2523 56.3948 10.8592 56.5082 9.47523 56.698C8.27773 56.8382 7.10095 57.1234 5.96987 57.5476C5.16278 57.8557 4.45511 58.3849 3.92508 59.0768C3.1502 60.1684 2.57097 61.3907 2.21413 62.6875C1.65067 65.1147 1.30152 67.5883 1.17087 70.0788C0.511661 76.2654 0.722435 82.516 1.79683 88.642C2.51865 92.8377 4.12763 96.8236 6.51236 100.324C6.73773 100.634 7.07264 100.843 7.44638 100.906C7.82013 100.969 8.20346 100.882 8.51542 100.664C8.81718 100.442 9.02127 100.108 9.08371 99.7348C9.14616 99.3614 9.06196 98.9779 8.84927 98.667C6.91251 95.4399 5.71444 91.8102 5.34391 88.0473C4.69961 82.2881 4.88236 76.4641 5.88641 70.7585C6.13679 69.1868 6.4289 67.0204 6.92967 65.0663C7.12984 64.1818 7.46797 63.3357 7.9312 62.5601C7.55562 61.8804 9.60042 62.2203 10.2264 62.1353C11.5124 61.9519 12.8087 61.8525 14.1073 61.8379H20.4086C31.7593 61.4132 30.716 60.5211 31.2585 63.707C31.572 66.1724 31.7393 68.6549 31.7593 71.1408C31.9232 75.3705 32.5246 79.5707 33.5537 83.672C34.5177 87.7352 35.8016 91.7127 37.3929 95.5661C37.5423 95.9717 37.8439 96.3002 38.2312 96.4795C38.6186 96.6587 39.0601 96.674 39.4585 96.5219C39.857 96.3698 40.1797 96.0628 40.3558 95.6685C40.5319 95.2741 40.5469 94.8247 40.3975 94.4192C39.4034 91.4404 38.5813 88.4051 37.9354 85.3287C38.4359 85.909 38.98 86.4487 39.5629 86.9429C41.1177 88.141 42.87 89.0473 44.7374 89.6191C46.5553 90.2214 48.4597 90.5086 50.371 90.4686C54.8422 90.4503 59.1502 88.7567 62.4729 85.711C62.6423 85.5817 62.7847 85.4192 62.8914 85.2329C62.9982 85.0467 63.0672 84.8407 63.0944 84.6268C63.1217 84.413 63.1065 84.1958 63.05 83.9881C62.9934 83.7803 62.8965 83.5862 62.765 83.4172C62.6214 83.2291 62.4396 83.0748 62.2322 82.9647C62.0247 82.8546 61.7963 82.7914 61.5626 82.7793C61.3289 82.7672 61.0954 82.8065 60.878 82.8946C60.6606 82.9827 60.4645 83.1175 60.3029 83.2897Z" fill="#080D08"/>
<path d="M59.8019 18.1275C60.1479 17.872 60.3812 17.4881 60.4515 17.0589C60.5218 16.6297 60.4233 16.1896 60.1775 15.8336C59.9126 15.4872 59.5291 15.2554 59.1035 15.1845C58.6779 15.1136 58.2418 15.2089 57.8823 15.4513L47.241 20.6337C45.7789 21.3891 44.3828 22.2702 43.068 23.2674C42.4547 23.8224 42.08 24.6004 42.0247 25.4338C41.9666 25.8688 42.0038 26.3116 42.1336 26.7302C42.2635 27.1488 42.4828 27.533 42.7759 27.8551C43.3184 28.4923 44.9876 29.8941 45.1128 30.0215L54.4604 37.8376C54.7263 38.1074 55.0865 38.2589 55.4619 38.2589C55.8374 38.2589 56.1975 38.1074 56.4634 37.8376C56.7285 37.5669 56.8773 37.2003 56.8773 36.8181C56.8773 36.436 56.7285 36.0694 56.4634 35.7986L48.8268 26.071L48.4095 25.8161L49.9535 25.1365L59.8019 18.1275Z" fill="#080D08"/>
<path d="M72.0688 35.332C71.8989 35.4546 71.7544 35.6102 71.6435 35.7898C71.5327 35.9693 71.4577 36.1694 71.4228 36.3784C71.3879 36.5875 71.3938 36.8016 71.4402 37.0083C71.4867 37.215 71.5726 37.4104 71.6933 37.5833C71.9508 37.9267 72.3271 38.1574 72.7457 38.2284C73.1643 38.2994 73.5937 38.2055 73.9467 37.9657L84.588 32.7832C86.0587 32.0601 87.4563 31.1923 88.761 30.192C89.3397 29.6633 89.7103 28.9388 89.8043 28.1531C89.862 27.7246 89.8245 27.2884 89.6945 26.8767C89.5644 26.465 89.3453 26.0882 89.0531 25.7743C88.3163 25.0063 87.536 24.283 86.7162 23.6078L77.3686 15.7493C77.2402 15.6021 77.0835 15.4833 76.9083 15.4C76.7331 15.3168 76.5431 15.2708 76.3498 15.265C76.1565 15.2592 75.9641 15.2937 75.7844 15.3664C75.6047 15.439 75.4415 15.5482 75.3048 15.6874C75.1681 15.8266 75.0607 15.9927 74.9894 16.1757C74.918 16.3586 74.8842 16.5544 74.8898 16.7512C74.8955 16.9479 74.9407 17.1414 75.0225 17.3197C75.1043 17.4981 75.221 17.6575 75.3655 17.7882L83.0022 27.346L83.4195 27.6433C82.8888 27.8299 82.3726 28.0571 81.8755 28.323L72.0688 35.332Z" fill="#080D08"/>
<path d="M72.7399 9.97161C72.5679 9.89652 72.3826 9.85791 72.1954 9.85816C72.0083 9.8584 71.8231 9.89748 71.6512 9.97301C71.4794 10.0485 71.3245 10.159 71.196 10.2975C71.0675 10.436 70.968 10.5998 70.9038 10.7787C69.318 13.5398 67.7323 16.216 66.3969 19.2745C65.8127 20.5063 65.3536 21.7807 64.8946 23.0551C64.4356 24.3294 64.06 25.6038 63.7261 26.9206C62.9333 30.0216 62.3908 33.0801 61.8065 36.2235C61.7427 36.4298 61.7203 36.6471 61.7407 36.8624C61.761 37.0777 61.8236 37.2867 61.9248 37.4769C62.026 37.6671 62.1637 37.8346 62.3298 37.9696C62.4959 38.1045 62.6869 38.2041 62.8915 38.2625C63.301 38.3818 63.7401 38.3329 64.1145 38.1265C64.489 37.92 64.7691 37.5723 64.8946 37.158C66.063 34.2695 67.3567 31.4659 68.5251 28.6623C69.0259 27.4304 69.5267 26.1985 69.9857 24.9666C70.4516 23.728 70.8555 22.4662 71.1959 21.186C72.0722 18.17 72.6982 15.154 73.5328 12.138C73.6436 11.9473 73.7111 11.7337 73.7304 11.513C73.7497 11.2922 73.7203 11.0699 73.6443 10.8622C73.5683 10.6545 73.4476 10.4668 73.2911 10.3127C73.1347 10.1586 72.9463 10.0421 72.7399 9.97161Z" fill="#080D08"/>
<path d="M100.323 21.186C97.8605 -1.66762 103.703 5.68121 82.9628 2.66521C76.409 1.68737 69.804 1.10581 63.1826 0.923584C59.8441 0.923584 56.5474 0.923584 53.2507 1.22094C49.954 1.51829 46.4904 1.94307 43.2772 2.45282C40.0639 2.96256 37.1845 3.17496 33.9713 3.6847C25.9173 5.0865 25.6252 2.32538 25.3331 12.6902C25.2705 13.6095 25.2705 14.5321 25.3331 15.4513C25.3741 16.2925 25.4717 17.1299 25.6252 17.9576C26.0425 20.0815 26.7936 22.2054 27.211 24.117C27.226 24.315 27.2809 24.5078 27.3724 24.6832C27.4639 24.8586 27.59 25.0129 27.7427 25.1365C27.8955 25.2601 28.0716 25.3503 28.2601 25.4014C28.4487 25.4526 28.6455 25.4636 28.8384 25.4338C29.023 25.4285 29.2046 25.3854 29.3725 25.3072C29.5403 25.229 29.691 25.1172 29.8156 24.9785C29.9402 24.8398 30.0361 24.677 30.0976 24.4998C30.1592 24.3226 30.1851 24.1347 30.1738 23.9471C30.6166 21.5075 30.8677 19.0359 30.925 16.5558C30.8959 15.1288 30.7423 13.7072 30.4659 12.3079C30.2573 10.7787 29.7982 9.2919 29.7982 7.76266C31.3965 7.44365 33.0135 7.23081 34.639 7.12548C37.727 6.91309 40.8151 6.91309 43.8197 6.78565C46.8242 6.65822 50.2879 6.57326 53.5428 6.53078C56.7978 6.4883 60.0111 6.53078 63.2243 6.53078C69.6925 6.53078 76.119 6.53078 82.6289 7.04053C86.176 7.2954 89.9318 7.04053 93.5623 7.04053H94.1465C94.3969 9.03703 94.689 11.0335 94.8142 13.0725C94.9394 15.1115 94.8142 17.3204 95.0646 19.6992C95.315 22.078 95.2733 23.9471 95.3985 26.3259C95.8575 33.1225 96.3583 39.8766 96.5252 46.4608C96.5574 46.7443 96.6739 47.0111 96.859 47.2254C90.7931 48.1124 84.6506 48.326 78.5394 47.8626L70.9444 47.6077H65.8116C61.144 47.7053 56.4879 48.1169 51.8736 48.8396C51.6695 48.8229 51.4641 48.8514 51.2718 48.9231C51.0795 48.9948 50.9047 49.108 50.7594 49.255C50.6141 49.402 50.5019 49.5793 50.4303 49.7746C50.3587 49.97 50.3296 50.1788 50.3448 50.3867C50.3601 50.5947 50.4194 50.7968 50.5186 50.9791C50.6179 51.1615 50.7548 51.3199 50.9198 51.4433C51.0849 51.5667 51.2743 51.6523 51.475 51.6941C51.6756 51.736 51.8828 51.7331 52.0823 51.6857C55.2121 51.6857 58.3001 51.6857 61.3464 52.1955C61.0417 53.2836 60.8048 54.3903 60.637 55.5088C60.5749 56.2863 60.5749 57.0676 60.637 57.8451V60.1815C60.637 62.0505 61.096 63.7922 61.263 65.6187C61.228 66.0517 61.3615 66.4812 61.6347 66.8149C61.9079 67.1486 62.2989 67.3598 62.7235 67.4028C62.933 67.4263 63.145 67.4058 63.3464 67.3427C63.5478 67.2796 63.7344 67.1752 63.8947 67.0359C64.055 66.8967 64.1856 66.7254 64.2784 66.5329C64.3712 66.3403 64.4244 66.1304 64.4345 65.9161C64.9352 64.047 65.3943 62.2629 65.7281 60.3514C65.7918 59.5598 65.7918 58.7642 65.7281 57.9726C65.8113 57.1819 65.8113 56.3844 65.7281 55.5938C65.5838 54.5617 65.3747 53.5401 65.1022 52.5353L68.3154 52.8326C71.9789 53.1509 75.656 53.2785 79.3322 53.2149C85.6255 53.1529 91.878 52.1803 97.9023 50.3264C98.109 50.2813 98.3048 50.1946 98.4782 50.0714C98.6515 49.9482 98.7989 49.7909 98.9117 49.6088C99.0244 49.4268 99.1003 49.2236 99.1348 49.0112C99.1692 48.7989 99.1617 48.5817 99.1125 48.3724C99.1125 48.1175 98.8621 47.9901 98.7369 47.8201C99.0125 47.7179 99.2514 47.5335 99.4226 47.2911C99.5938 47.0486 99.6893 46.7593 99.6967 46.4608C100.156 41.4908 100.698 36.3509 100.782 31.1685C100.845 27.8343 100.692 24.4995 100.323 21.186Z" fill="#6BCB3A"/>
<path d="M94.689 75.7713C94.3932 74.3184 93.5746 73.0306 92.3939 72.1606C91.4404 71.5546 90.3459 71.2175 89.2223 71.1836C87.5317 71.2093 85.8448 71.3513 84.173 71.6084L69.2752 73.7323C69.0898 73.753 68.9104 73.8117 68.748 73.9051C68.5855 73.9985 68.4434 74.1244 68.3302 74.2754C68.2171 74.4263 68.1352 74.5991 68.0896 74.7832C68.044 74.9674 68.0357 75.159 68.065 75.3465C68.0853 75.5353 68.1431 75.7179 68.2348 75.8832C68.3265 76.0486 68.4502 76.1932 68.5985 76.3084C68.7468 76.4236 68.9165 76.507 69.0974 76.5534C69.2783 76.5998 69.4666 76.6083 69.6508 76.5784L84.7572 76.4085H87.8452C91.4758 76.4085 89.3893 75.8987 89.8066 81.8882C90.1821 86.1361 93.4789 86.1361 85.8839 86.391L69.8594 87.6229C69.4351 87.6449 69.0361 87.835 68.7476 88.1524C68.4591 88.4699 68.304 88.8897 68.3154 89.322C68.3207 89.5377 68.3684 89.7502 68.4557 89.9468C68.5431 90.1435 68.6683 90.3203 68.8239 90.4668C68.9795 90.6133 69.1624 90.7266 69.3618 90.7999C69.5611 90.8733 69.7729 90.9052 69.9846 90.8937L85.8005 91.1486C87.6725 91.3622 89.5621 91.3622 91.4341 91.1486C92.6673 90.9326 93.8124 90.3571 94.7308 89.4919C95.3712 88.6232 95.7089 87.5619 95.6906 86.4759C95.6134 84.8112 95.4462 83.152 95.1898 81.5059C95.1871 79.5832 95.0195 77.6644 94.689 75.7713Z" fill="#080D08"/>
</svg>
