<svg width="101" height="100" viewBox="0 0 101 100" fill="none" xmlns="http://www.w3.org/2000/svg">
<path fill-rule="evenodd" clip-rule="evenodd" d="M99.1455 24.8077C98.6043 20.2244 98.8541 11.1827 95.3157 8.64106C87.4063 2.9744 70.3388 4.4744 58.6829 4.14107C44.1547 3.5994 28.7939 4.76607 14.4738 5.14107C14.0984 5.14107 13.7384 5.29032 13.473 5.556C13.2075 5.82167 13.0584 6.18201 13.0584 6.55773C13.0584 6.93345 13.2075 7.29379 13.473 7.55947C13.7384 7.82514 14.0984 7.9744 14.4738 7.9744C28.9187 7.76606 43.6135 6.8494 58.4748 7.64107C68.5488 8.14107 86.2824 7.05773 92.8596 11.8077C94.4831 12.9744 94.4831 21.9744 94.8162 25.0994C96.2244 36.2998 96.3222 47.6263 95.1076 58.8494C94.9133 62.5735 94.2988 66.2636 93.2759 69.8494C82.7856 75.1827 11.1435 78.9744 6.93906 72.1827C5.37293 66.5455 4.49237 60.7396 4.31648 54.8911C3.74561 48.9213 3.67598 42.9141 4.10834 36.9327C7.39697 6.05773 7.18883 8.30773 6.8558 7.76606C6.62236 7.53703 6.3085 7.40874 5.98161 7.40874C5.65472 7.40874 5.34087 7.53703 5.10742 7.76606C3.44229 9.4744 1.73554 31.7244 1.15274 36.5994C0.0287817 45.4744 1.15274 70.1411 3.77532 74.0994C7.23046 79.9744 30.0427 80.2244 37.0779 80.2661C34.3183 83.8191 32.9956 88.2815 33.373 92.7661L24.3813 93.4327C24.0501 93.4327 23.7324 93.5644 23.4982 93.7988C23.264 94.0333 23.1324 94.3512 23.1324 94.6827C23.1324 95.0142 23.264 95.3322 23.4982 95.5666C23.7324 95.801 24.0501 95.9327 24.3813 95.9327C35.2658 96.7824 46.1881 97.0467 57.101 96.7244C62.8873 96.4744 68.7985 95.8077 74.7514 95.3911C75.1268 95.3911 75.4868 95.2418 75.7522 94.9761C76.0176 94.7104 76.1667 94.3501 76.1667 93.9744C76.1667 93.5987 76.0176 93.2383 75.7522 92.9727C75.4868 92.707 75.1268 92.5577 74.7514 92.5577H67.0918C66.5401 87.9467 65.128 83.4803 62.929 79.3911C68.4239 79.0161 94.3166 77.2244 97.3971 72.6411C99.0942 68.4558 99.9977 63.9908 100.061 59.4744C101.179 47.925 100.871 36.2819 99.1455 24.8077ZM63.6783 92.6827C51.8142 92.3911 46.0279 92.3077 36.4534 92.6827C37.0779 91.0994 38.1186 88.8494 38.5765 87.3077C39.1787 85.0557 39.5826 82.7553 39.7837 80.4327C39.7837 79.9327 40.9493 80.7661 59.2657 79.6411C59.6561 84.2825 61.1707 88.7589 63.6783 92.6827Z" fill="#080D08"/>
<path fill-rule="evenodd" clip-rule="evenodd" d="M66.4259 26.0576C66.551 25.935 66.649 25.7874 66.7135 25.6245C66.7779 25.4615 66.8074 25.2868 66.8 25.1117C66.7926 24.9366 66.7486 24.765 66.6706 24.608C66.5927 24.4511 66.4827 24.3123 66.3477 24.2007C66.2127 24.089 66.0557 24.0071 65.887 23.9601C65.7183 23.9131 65.5416 23.9022 65.3684 23.928C65.1952 23.9538 65.0294 24.0158 64.8817 24.1099C64.734 24.204 64.6077 24.3281 64.511 24.4743C52.3972 36.9743 44.9874 44.5576 44.7376 46.7243C43.6553 56.0576 43.0309 60.5993 44.3213 61.9326C46.9023 64.7243 57.351 61.5576 59.5573 60.1826C61.7635 58.8076 80.3713 37.7659 82.536 34.7659C85.4959 31.8974 87.5387 28.2141 88.4056 24.1826C88.3328 22.7783 87.9778 21.4031 87.3618 20.1392C86.7459 18.8753 85.8816 17.7488 84.8207 16.8269C83.7598 15.9051 82.524 15.2068 81.1873 14.7739C79.8506 14.3411 78.4404 14.1825 77.0411 14.3076C74.6988 14.6702 72.5605 15.8511 71.005 17.6409C70.74 17.8399 70.5649 18.136 70.518 18.4642C70.4712 18.7924 70.5565 19.1257 70.7552 19.3909C70.954 19.6562 71.2498 19.8315 71.5777 19.8784C71.9056 19.9253 72.2386 19.8399 72.5036 19.6409C73.1488 19.0706 73.9001 18.6335 74.7145 18.3546C75.5289 18.0758 76.3903 17.9607 77.2492 18.0159C79.4971 18.0159 84.0762 21.6826 84.0346 24.0159C84.0788 26.4676 83.2023 28.8466 81.5786 30.6826C80.5379 29.6826 72.0041 22.7659 70.2557 21.1409C69.981 20.9449 69.6454 20.8536 69.3093 20.8834C68.9732 20.9131 68.6589 21.0621 68.4228 21.3034C68.1868 21.5446 68.0446 21.8624 68.022 22.1993C67.9993 22.5362 68.0976 22.8702 68.2992 23.1409C69.9643 24.8493 76.3334 30.4326 79.0392 33.0576C77.5406 35.3076 77.7071 34.8493 61.7219 51.3909C60.829 49.3742 59.545 47.5549 57.9443 46.0386C56.3437 44.5222 54.4582 43.3391 52.3972 42.5576C56.6016 37.3909 62.4296 30.8076 66.4259 26.0576ZM53.5628 48.4326C55.2279 50.1409 58.0586 52.3076 59.5156 53.6826C58.7316 54.5632 57.8977 55.3979 57.0179 56.1826C54.2246 57.427 51.2405 58.1879 48.1928 58.4326C48.1928 45.9326 48.5674 47.4743 50.4823 45.0159C51.4398 46.0576 52.3972 47.2243 53.5628 48.4326Z" fill="#6BCB3A"/>
<path fill-rule="evenodd" clip-rule="evenodd" d="M13.4333 61.1824C13.808 61.1824 15.8894 59.2657 16.7219 58.7657C19.2612 57.349 22.3834 54.0574 24.5897 54.599C25.2141 54.599 24.9227 55.2657 24.8394 55.8074C24.4231 58.6824 23.0078 61.8907 25.0892 63.724C28.2946 66.6407 32.4574 62.5574 40.5333 62.099C40.8618 62.042 41.1597 61.8707 41.3744 61.6154C41.589 61.36 41.7068 61.037 41.7068 60.7032C41.7068 60.3695 41.589 60.0464 41.3744 59.7911C41.1597 59.5357 40.8618 59.3644 40.5333 59.3074C37.1504 59.1981 33.767 59.506 30.4592 60.224C27.7534 60.7657 28.5027 60.8907 28.8357 59.6407C29.3972 57.8636 29.6506 56.0034 29.585 54.1407C29.5163 53.0582 29.0557 52.0379 28.2894 51.2709C27.5231 50.5039 26.5037 50.0428 25.4222 49.974C20.7182 49.3907 17.9708 54.1407 15.1401 56.2657C14.3772 56.9453 13.6544 57.6688 12.9754 58.4324C11.3519 58.9324 11.3935 61.6407 13.4333 61.1824Z" fill="#080D08"/>
</svg>
