<svg width="100" height="100" viewBox="0 0 100 100" fill="none" xmlns="http://www.w3.org/2000/svg">
<path fill-rule="evenodd" clip-rule="evenodd" d="M59.4099 52.9325C62.2062 46.5888 52.6071 39.4521 46.8894 40.412C41.1718 41.3719 36.3723 48.0078 32.5326 52.3065C11.6652 78.1404 14.1276 73.1739 3.31822 87.1134C3.20038 87.2586 3.11231 87.4256 3.05902 87.6049C3.00574 87.7842 2.98829 87.9722 3.00766 88.1582C3.02704 88.3442 3.08287 88.5246 3.17196 88.6891C3.26105 88.8535 3.38165 88.9988 3.52689 89.1166C3.67213 89.2345 3.83916 89.3225 4.01843 89.3758C4.19771 89.4291 4.38573 89.4466 4.57175 89.4272C4.75777 89.4078 4.93815 89.352 5.1026 89.2629C5.26704 89.1738 5.41233 89.0532 5.53017 88.908C13.8771 79.2672 16.3812 77.9734 37.3739 54.6853C40.0318 57.2292 43.0918 59.3162 46.4304 60.8621C38.6259 69.2091 30.3624 81.7296 16.7151 97.2549C16.5699 97.4139 16.4574 97.5999 16.384 97.8023C16.3107 98.0047 16.2779 98.2196 16.2876 98.4347C16.2973 98.6498 16.3492 98.8609 16.4405 99.0559C16.5317 99.2509 16.6605 99.426 16.8195 99.5712C16.9784 99.7165 17.1644 99.829 17.3668 99.9023C17.5692 99.9757 17.7841 100.008 17.9992 99.9988C18.2143 99.9891 18.4254 99.9371 18.6204 99.8459C18.8154 99.7546 18.9905 99.6258 19.1357 99.4669C33.6595 83.6076 34.1186 82.2721 46.0547 68.5413C50.27 63.7418 56.5719 59.4431 59.4099 52.9325ZM49.1014 57.8989C46.9933 54.7666 43.7688 52.5572 40.0867 51.7222C41.0776 50.6409 42.1223 49.6102 43.2168 48.6338C47.0981 45.1698 49.0597 45.2533 52.3567 47.8408C53.1497 48.4251 54.7356 49.9693 54.4017 50.7205C53.059 53.3991 51.2661 55.8272 49.1014 57.8989Z" fill="#080D08"/>
<path fill-rule="evenodd" clip-rule="evenodd" d="M61.6634 62.8653C64.264 63.6798 66.4668 65.4361 67.8401 67.79C68.5079 69.2508 67.8401 70.2107 69.2591 71.9635C69.4861 72.2626 69.7829 72.5014 70.1237 72.659C70.4644 72.8167 70.8386 72.8883 71.2135 72.8677C71.5883 72.8472 71.9524 72.7349 72.2738 72.5409C72.5952 72.3469 72.8641 72.077 73.057 71.7549C73.8499 70.6698 73.3074 70.002 73.5578 69.1673C75.3524 66.2041 74.7264 66.8301 76.7714 65.7033C78.8082 64.929 80.5768 63.5808 81.863 61.8219C82.0621 61.428 82.1768 60.9969 82.1997 60.5561C82.2227 60.1153 82.1533 59.6746 81.9962 59.2622C81.8391 58.8497 81.5976 58.4746 81.2872 58.1608C80.9768 57.847 80.6044 57.6014 80.1936 57.4398C79.2672 57.1665 78.4127 56.6918 77.6912 56.0497C76.9697 55.4076 76.399 54.6138 76.0202 53.7254L74.8933 50.5118C74.8933 49.8858 74.8933 48.2581 74.6846 47.9242C74.5661 47.4258 74.295 46.9767 73.9091 46.6397C73.5232 46.3026 73.0418 46.0943 72.532 46.0437C72.0221 45.9932 71.5092 46.103 71.0647 46.3578C70.6201 46.6126 70.2662 46.9997 70.0521 47.4651C67.381 53.3498 68.0488 56.8972 61.1208 58.5666C60.7436 58.6473 60.4119 58.87 60.1943 59.1885C59.9768 59.5071 59.8901 59.8971 59.9522 60.2778C59.9522 60.2778 60.8704 62.5732 61.6634 62.8653ZM68.4244 58.6918C69.3803 57.8791 70.1856 56.9043 70.8033 55.8121C71.6428 57.7775 72.9459 59.5102 74.6012 60.862C67.5062 65.0355 72.9318 65.912 68.3827 62.6149C63.8336 59.3179 64.1257 62.2393 68.4244 58.3997V58.6918Z" fill="#6BCB3A"/>
<path fill-rule="evenodd" clip-rule="evenodd" d="M26.6061 19.4189C26.0218 21.8396 28.9432 21.2135 33.6592 24.1767C35.1273 25.0043 36.3869 26.1565 37.3417 27.5453C38.2964 28.9341 38.9212 30.5227 39.1683 32.1898C40.1282 34.36 41.7141 35.4869 43.5504 33.8592C44.719 32.7741 44.2182 31.0212 44.4686 30.1865C44.9774 28.9703 45.6981 27.8539 46.5971 26.8895C48.7673 24.3854 54.944 23.7176 57.156 20.1284C57.41 19.6869 57.5597 19.1931 57.5935 18.6848C57.6273 18.1765 57.5444 17.6673 57.351 17.196C57.1577 16.7247 56.8591 16.3039 56.478 15.9658C56.097 15.6277 55.6437 15.3813 55.1527 15.2454C54.1495 15.1567 53.1744 14.8671 52.2854 14.3939C51.3963 13.9207 50.6115 13.2735 49.9776 12.4909C48.5464 11.0859 47.4333 9.3902 46.7133 7.51829C45.9934 5.64638 45.6833 3.64182 45.8041 1.63987C45.638 1.18821 45.3453 0.79398 44.961 0.504345C44.5767 0.21471 44.1171 0.0419429 43.6372 0.00671852C43.1572 -0.0285059 42.6773 0.0753046 42.2548 0.305727C41.8324 0.536149 41.4852 0.883423 41.255 1.30599C36.8311 9.36082 37.4571 14.369 26.3139 16.6644C26.0355 16.7918 25.8042 17.0034 25.6526 17.2694C25.501 17.5354 25.4368 17.8423 25.4691 18.1468C25.5014 18.4512 25.6285 18.7378 25.8325 18.9661C26.0365 19.1944 26.3071 19.3528 26.6061 19.4189ZM41.8393 9.6947C43.2822 13.5898 45.9468 16.9133 49.435 19.1685C45.9655 20.3645 43.0164 22.7237 41.0881 25.8461C38.3476 22.4017 34.5728 19.9291 30.3205 18.7929C32.8264 18.3036 35.1791 17.2227 37.1827 15.6401C39.1864 14.0575 40.7829 12.0191 41.8393 9.6947Z" fill="#6BCB3A"/>
<path fill-rule="evenodd" clip-rule="evenodd" d="M12.7922 61.5709C15.2963 61.1535 12.7922 59.2337 14.5033 46.8802C17.6752 26.0128 26.4813 26.3884 23.685 23.3835C23.373 23.0776 22.9534 22.9063 22.5164 22.9062C22.0795 22.9063 21.6599 23.0776 21.3479 23.3835C8.8274 33.4416 7.32494 46.1707 11.1228 60.4858C11.2123 60.8442 11.4342 61.1555 11.744 61.3568C12.0538 61.5582 12.4283 61.6347 12.7922 61.5709Z" fill="#080D08"/>
<path fill-rule="evenodd" clip-rule="evenodd" d="M60.5363 13.492C60.195 13.5727 59.8941 13.7736 59.6887 14.0578C59.4832 14.342 59.3869 14.6907 59.4173 15.0401C59.4476 15.3895 59.6027 15.7163 59.8541 15.9608C60.1056 16.2053 60.4366 16.3511 60.7867 16.3717C73.3072 15.6622 87.7892 26.722 91.0028 44.2924C95.1763 66.6205 75.1018 91.1189 49.2679 81.8538C48.877 81.7691 48.4687 81.8276 48.1173 82.0186C47.7658 82.2097 47.4947 82.5205 47.3532 82.8946C47.2116 83.2686 47.2091 83.6811 47.346 84.0569C47.4829 84.4327 47.7503 84.7469 48.0993 84.9422C53.0133 87.1584 58.3971 88.1311 63.7759 87.7744C69.1547 87.4178 74.3631 85.7428 78.9414 82.8972C88.0768 76.891 94.4907 67.54 96.8039 56.8546C100.602 32.6901 79.7343 11.2801 60.5363 13.492Z" fill="#080D08"/>
</svg>
