<svg width="68" height="68" viewBox="0 0 68 68" fill="none" xmlns="http://www.w3.org/2000/svg">
<g clip-path="url(#clip0_377_416)">
<path fill-rule="evenodd" clip-rule="evenodd" d="M16.2449 38.0146C15.9908 37.7652 15.7349 37.5158 15.4771 37.2683C12.8493 34.7493 10.2418 32.2274 7.7954 29.526C7.20264 28.8719 6.0897 27.6026 4.9721 26.9493C4.17275 26.4822 3.34545 26.2868 2.58891 26.3836C2.10689 26.445 1.40248 26.6879 1.04887 27.6119C0.989318 27.7673 0.918611 28.0344 0.890695 28.3749C0.846028 28.9258 0.889743 29.9141 0.903701 30.0509C1.09912 32.0441 1.29453 33.9499 1.65279 35.9218C1.98221 37.7364 2.20739 39.5649 2.56193 41.3767C3.09235 44.0874 3.7754 46.6967 4.7711 49.278C5.14053 50.2365 6.21904 50.7139 7.17751 50.3444C8.13505 49.975 8.61335 48.8975 8.24392 47.939C7.32733 45.5614 6.70293 43.1587 6.21532 40.662C5.86357 38.867 5.64115 37.0543 5.31453 35.2564C5.10236 34.0867 4.95159 32.9412 4.82318 31.7855L5.03628 32.0246C7.54227 34.7911 10.2102 37.3753 12.9014 39.9548C13.9082 40.9207 14.8807 41.9146 15.9033 42.8647C15.9862 42.9856 16.3686 43.5402 16.5566 43.7301C16.8692 44.0465 17.207 44.2232 17.5011 44.3107C18.2483 44.534 19.0067 44.4513 19.6693 43.6138C20.1653 42.9866 20.4509 42.0141 20.4295 40.8528C20.4007 39.2569 19.7949 37.1529 19.6665 36.1833C18.8532 30.0481 17.5374 23.9372 17.1875 17.749C17.1298 16.7235 16.2504 15.9381 15.225 15.9958C14.1995 16.0544 13.4131 16.9338 13.4718 17.9592C13.8263 24.2405 15.1505 30.4445 15.9759 36.6728C16.0206 37.004 16.1267 37.4758 16.2449 38.0146Z" fill="black"/>
<path fill-rule="evenodd" clip-rule="evenodd" d="M32.5065 12.5831C30.396 13.1423 28.2818 13.6299 26.5863 15.0797C24.8127 16.5975 23.911 18.802 23.59 21.2586C23.1805 24.3928 23.7295 27.9484 24.0701 30.4823C24.2469 31.7944 24.3223 33.623 24.7048 35.2431C25.0342 36.6361 25.5953 37.8839 26.4505 38.7577C27.7942 40.1303 29.8563 40.2689 31.9714 39.4128C34.4151 38.4237 36.8485 36.141 37.5101 34.8103C37.968 33.8909 37.5929 32.7724 36.6726 32.3155C35.7532 31.8577 34.6356 32.2327 34.1778 33.1521C33.7581 33.9961 32.125 35.3352 30.5747 35.9633C30.2285 36.1029 29.8861 36.2071 29.5622 36.2331C29.3938 36.2471 29.2254 36.2713 29.1109 36.155C28.5498 35.5808 28.3525 34.6475 28.1897 33.7048C27.9617 32.3909 27.8984 31.0183 27.7597 29.9854C27.4545 27.7195 26.9148 24.5435 27.2805 21.7407C27.4769 20.2378 27.9207 18.8374 29.0067 17.9087C30.2667 16.8311 31.8895 16.5975 33.4594 16.1815C34.4523 15.9191 35.0451 14.8992 34.7817 13.9063C34.5193 12.9134 33.4994 12.3207 32.5065 12.5831Z" fill="black"/>
<path fill-rule="evenodd" clip-rule="evenodd" d="M32.3643 22.3899C30.7293 23.2804 28.9817 24.196 27.2295 24.8251C26.2627 25.1722 25.7592 26.2386 26.1054 27.2055C26.4525 28.1723 27.5189 28.6757 28.4857 28.3286C30.4157 27.6363 32.3447 26.6397 34.1444 25.6598C35.0461 25.1685 35.3802 24.0369 34.8889 23.1352C34.3975 22.2326 33.267 21.8995 32.3643 22.3899Z" fill="black"/>
<path fill-rule="evenodd" clip-rule="evenodd" d="M54.8408 23.3779C53.4822 21.7345 52.0464 20.1172 50.5296 18.6395C50.4058 18.5194 48.876 17.2595 47.9669 16.7886C47.3536 16.4713 46.8102 16.4136 46.4919 16.4443C45.566 16.5336 45.0011 17.0352 44.7694 17.8932C44.548 18.7158 44.468 19.5728 44.468 20.4476C43.0917 17.8671 41.8326 15.2132 41.0677 12.4187C41.0044 12.1879 40.9532 12.08 40.9449 12.0605C40.6871 11.491 40.3214 11.2974 40.1911 11.2211C39.5509 10.8451 38.974 10.9084 38.4873 11.1271C38.4277 11.1532 37.1156 11.7357 37.4292 13.2236C37.4543 13.3437 37.6684 14.1989 37.7307 14.5329C37.7856 14.8233 37.9047 15.0847 38.0713 15.3062C39.3536 18.9893 41.3152 22.4687 43.1978 25.8662C43.6044 26.6004 43.9217 27.3569 44.1311 28.1693C44.1925 28.4066 44.2176 28.9435 44.2716 29.2068C44.3637 29.6526 44.5461 29.9513 44.6624 30.1039C45.2673 30.8986 46.0127 30.9796 46.7003 30.7758C46.9944 30.6892 47.5834 30.491 47.9417 29.6377C48.7476 27.7208 48.6564 25.6037 48.4228 23.4709C48.354 22.84 48.2684 22.2091 48.2162 21.5856C49.8717 23.2308 51.4211 25.0454 52.8774 26.859C53.0374 27.0582 54.6585 28.8709 55.0893 29.1408C56.1669 29.8182 57.0035 29.3092 57.3618 29.0058C57.908 28.5424 58.3379 27.7468 58.5128 26.7335C58.738 25.4223 58.5603 23.6179 58.5426 22.8921C58.4244 18.0067 58.2476 12.8998 57.1505 8.12979C56.9206 7.12851 55.9212 6.50314 54.92 6.73299C53.9187 6.96284 53.2934 7.96322 53.5232 8.96356C54.5645 13.4935 54.7087 18.3445 54.8213 22.9824C54.8241 23.0894 54.8315 23.2234 54.8408 23.3779Z" fill="black"/>
<path fill-rule="evenodd" clip-rule="evenodd" d="M62.278 6.89219C62.9526 10.1538 63.6282 13.3856 64.0693 16.7393C64.2033 17.7583 65.1384 18.4767 66.1574 18.3427C67.1754 18.2087 67.8939 17.2734 67.7599 16.2545C67.1383 11.5245 66.0625 7.03364 65.1618 2.36783C64.8147 0.564415 63.1006 0.816621 62.9954 0.835232C62.7637 0.876177 61.501 1.1451 61.4591 2.62376C61.4563 2.71402 61.5168 3.35234 61.527 3.59986C61.5493 4.16657 61.5381 4.72028 61.5093 5.28792C61.4758 5.9421 61.7838 6.53486 62.278 6.89219Z" fill="black"/>
<path fill-rule="evenodd" clip-rule="evenodd" d="M67.0942 26.1257C67.2831 25.5506 67.1872 24.8937 66.7815 24.3847C66.1403 23.5816 64.9687 23.4504 64.1657 24.0915C63.424 24.6834 63.2854 25.4046 63.3849 26.2867C63.5003 27.3076 64.4235 28.0427 65.4443 27.9263C66.3776 27.8212 67.0718 27.0395 67.0942 26.1257Z" fill="black"/>
<path fill-rule="evenodd" clip-rule="evenodd" d="M31.9613 62.0266C31.7715 61.6246 31.6189 61.3073 31.5826 61.2393C29.8536 58.0056 27.9776 54.8148 25.935 51.7691C25.3627 50.9157 24.2061 50.6878 23.3528 51.2601C22.4995 51.8323 22.2715 52.989 22.8438 53.8424C24.8175 56.7848 26.6292 59.8696 28.3005 62.9944C28.428 63.2326 29.2776 65.3496 29.8843 66.2327C30.4343 67.0321 31.1248 67.3177 31.5202 67.3764C32.1484 67.4694 33.131 67.2442 33.9285 66.1797C34.9698 64.7903 36.32 61.0784 36.5424 60.4623C36.95 59.3289 37.2953 58.1397 37.6154 56.983C38.2221 54.7887 38.5711 52.5554 38.8828 50.3053C39.0242 49.2873 38.3124 48.3474 37.2944 48.206C36.2773 48.0655 35.3365 48.7774 35.196 49.7945C34.9065 51.8817 34.5911 53.9549 34.0281 55.9901C33.7322 57.0574 33.4158 58.1564 33.0398 59.2024C32.9263 59.516 32.4852 60.8113 31.9613 62.0266Z" fill="black"/>
</g>
<defs>
<clipPath id="clip0_377_416">
<rect width="67" height="67" fill="white" transform="translate(0.805664 0.804932)"/>
</clipPath>
</defs>
</svg>
