<svg width="52" height="50" viewBox="0 0 52 50" fill="none" xmlns="http://www.w3.org/2000/svg">
<path fill-rule="evenodd" clip-rule="evenodd" d="M46.6042 26.2417C45.0151 19.7806 45.1192 13.5586 44.9287 7.00496C44.8917 5.72508 45.8971 4.66102 47.1731 4.62247C48.4499 4.58392 49.5155 5.59398 49.5533 6.87386C49.7337 13.0882 49.588 19.0018 51.0961 25.1391C51.4014 26.3804 50.6419 27.6371 49.4021 27.9378C48.1631 28.2462 46.9087 27.483 46.6042 26.2417Z" fill="#6BCB3A"/>
<path fill-rule="evenodd" clip-rule="evenodd" d="M33.1048 38.7629C22.3245 28.9094 12.1672 16.234 5.06777 3.43521C4.44865 2.31724 4.85191 0.906232 5.96833 0.289424C7.08476 -0.327385 8.49415 0.0735744 9.11327 1.19154C15.9784 13.5663 25.8018 25.8254 36.2259 35.3474C37.168 36.2109 37.2336 37.6758 36.3723 38.6164C35.5111 39.5571 34.047 39.6264 33.1048 38.7629Z" fill="#6BCB3A"/>
<path fill-rule="evenodd" clip-rule="evenodd" d="M30.3737 49.5262C20.514 51.153 10.3514 48.3774 1.38605 44.4529C0.216422 43.9364 -0.317133 42.5717 0.194047 41.4075C0.705998 40.2355 2.07148 39.7035 3.2411 40.2124C11.4061 43.7899 20.6405 46.4422 29.6205 44.9618C30.8803 44.7537 32.0715 45.6095 32.2789 46.8662C32.4871 48.123 31.6328 49.318 30.3737 49.5262Z" fill="#6BCB3A"/>
</svg>
