<svg width="32" height="28" viewBox="0 0 32 28" fill="none" xmlns="http://www.w3.org/2000/svg">
<g clip-path="url(#clip0_433_428)">
<path d="M22 0C20.9391 0 19.9217 0.421427 19.1716 1.17157C18.4214 1.92172 18 2.93913 18 4V16C18 22.26 21.3 26.386 27.514 27.94C27.7695 28.0059 28.0355 28.0207 28.2967 27.9834C28.5579 27.9461 28.8091 27.8574 29.0359 27.7226C29.2627 27.5878 29.4606 27.4094 29.6181 27.1978C29.7757 26.9861 29.8898 26.7454 29.9539 26.4895C30.018 26.2335 30.0309 25.9675 29.9917 25.7065C29.9525 25.4456 29.8621 25.195 29.7257 24.9692C29.5892 24.7434 29.4094 24.5468 29.1967 24.3907C28.9839 24.2347 28.7424 24.1223 28.486 24.06C24.032 22.946 22 20.406 22 16V14L28 14C29.0092 14.0003 29.9811 13.6192 30.7211 12.933C31.4611 12.2468 31.9143 11.3063 31.99 10.3L32 10V4C32 2.93913 31.5786 1.92172 30.8284 1.17157C30.0783 0.421427 29.0609 0 28 0L22 0ZM4 0C2.93913 0 1.92172 0.421427 1.17157 1.17157C0.421428 1.92172 0 2.93913 0 4V16C0 22.26 3.3 26.386 9.514 27.94C9.76947 28.0059 10.0355 28.0207 10.2967 27.9834C10.5579 27.9461 10.8091 27.8574 11.0359 27.7226C11.2627 27.5878 11.4606 27.4094 11.6181 27.1978C11.7757 26.9861 11.8898 26.7454 11.9539 26.4895C12.018 26.2335 12.0309 25.9675 11.9917 25.7065C11.9525 25.4456 11.8621 25.195 11.7257 24.9692C11.5892 24.7434 11.4094 24.5468 11.1967 24.3907C10.9839 24.2347 10.7424 24.1223 10.486 24.06C6.032 22.946 4 20.406 4 16V14L10 14C11.0092 14.0003 11.9811 13.6192 12.7211 12.933C13.4611 12.2468 13.9143 11.3063 13.99 10.3L14 10V4C14 2.93913 13.5786 1.92172 12.8284 1.17157C12.0783 0.421427 11.0609 0 10 0L4 0Z" fill="#6BCB3A"/>
</g>
<defs>
<clipPath id="clip0_433_428">
<rect width="32" height="28" fill="white" transform="matrix(-1 0 0 1 32 0)"/>
</clipPath>
</defs>
</svg>
