<svg width="261" height="426" viewBox="0 0 261 426" fill="none" xmlns="http://www.w3.org/2000/svg">
<path fill-rule="evenodd" clip-rule="evenodd" d="M199.797 108.101C162.361 82.1956 121.148 79.5626 75.1103 81.8765C67.3369 82.2688 48.397 83.9111 34.2285 89.3966C24.2085 93.2731 16.6404 99.1775 16.1235 107.509C15.6663 114.79 20.3914 120.468 27.8203 124.683C43.9503 133.839 72.9565 136.226 81.8632 136.213C121.983 136.14 162.414 127.503 199.399 111.884C201.679 113.506 203.952 115.222 206.212 117.03C213.011 122.489 220.553 129.684 225.795 137.909C230.891 145.901 233.827 154.877 231.547 164.159C226.795 183.528 205.814 198.349 179.929 209.373C174.29 211.78 168.418 213.994 162.414 216.036C158.942 213.655 154.992 211.468 150.665 209.466C117.092 193.934 61.2401 189.133 44.3612 189.971C36.8462 190.343 23.0091 190.842 12.9361 195.177C5.73254 198.276 0.42417 203.302 0.0199235 211.281C-0.344561 218.389 4.32086 223.769 11.637 227.658C27.4358 236.056 55.786 237.552 65.0108 237.472C85.9852 237.299 125.986 231.674 161.937 219.699C168.796 224.66 173.342 230.451 174.197 237.273C175.39 246.761 168.504 255.465 157.961 263.251C154.78 265.598 151.268 267.859 147.523 270.006C147.172 269.907 146.828 269.814 146.476 269.714C118.252 261.901 82.4929 261.542 66.7339 262.772C59.6231 263.324 46.8131 265.219 37.7077 270.226C31.2132 273.803 26.6009 278.956 26.6274 286.097C26.6539 293.431 32.194 297.467 39.6493 299.389C49.8217 302.002 63.533 300.699 68.6225 300.18C82.9567 298.731 120.949 288.697 147.928 273.59C156.165 276.031 163.66 279.156 169.631 283.152C175.94 287.361 180.546 292.534 182.408 298.923C186.987 314.688 175.257 327.933 158.087 338.326C152.858 341.491 147.119 344.383 141.135 346.983C136.675 342.202 130.267 338.266 122.758 335.188C105.064 327.94 81.2734 325.347 63.6987 326.896C57.635 327.428 47.1976 328.924 39.941 333.14C34.6925 336.185 31.0806 340.627 31.3523 346.93C31.677 354.59 36.8329 359.324 43.8443 362.15C53.5992 366.073 66.9924 366.259 74.0634 366.425C87.9469 366.744 115.774 361.212 140.227 350.973C141.871 353.08 143.097 355.354 143.825 357.815C146.582 367.07 142.149 378.606 126.854 392.895C119.445 399.81 111.334 405.934 102.228 410.396C89.1066 416.832 75.4748 420.223 61.1671 422.697C60.2659 422.856 59.6563 423.714 59.8154 424.618C59.9678 425.522 60.8292 426.134 61.7305 425.975C76.3496 423.448 90.2796 419.957 103.686 413.381C113.083 408.773 121.466 402.463 129.114 395.329C145.761 379.777 150.002 366.937 147.006 356.864C146.238 354.291 144.992 351.884 143.342 349.636C149.147 347.083 154.707 344.257 159.797 341.172C178.452 329.882 190.566 315.114 185.589 297.993C181.911 285.346 168.65 276.795 151.824 271.323C154.694 269.581 157.411 267.786 159.922 265.931C171.612 257.3 178.809 247.373 177.491 236.861C176.609 229.859 172.308 223.722 165.662 218.429C170.983 216.574 176.198 214.58 181.228 212.432C208.213 200.936 229.811 185.15 234.768 164.95C236.776 156.772 235.178 148.8 231.58 141.426C226.325 130.688 216.769 121.246 208.28 114.437C206.517 113.021 204.741 111.658 202.958 110.355C207.06 108.559 211.123 106.684 215.132 104.716C225.053 99.8557 236.776 93.6056 245.762 85.2609C251.899 79.556 256.763 72.8802 259.016 65.0275C262.257 53.7839 258.671 44.2092 252.044 36.3167C245.636 28.6769 236.345 22.6328 227.889 18.1912C190.877 -1.25076 147.258 -6.63654 107.854 9.55405C107.013 9.89981 106.608 10.8706 106.953 11.7217C107.298 12.5661 108.265 12.9784 109.113 12.626C147.596 -3.18557 190.201 2.14689 226.351 21.1368C234.45 25.3855 243.369 31.1437 249.513 38.4577C255.431 45.5124 258.731 54.0499 255.835 64.1034C253.211 73.226 246.729 80.5932 238.976 86.6771C231.037 92.9073 221.746 97.7812 213.674 101.731C209.108 103.965 204.476 106.092 199.797 108.101ZM137.894 348.36C133.792 344.297 128.08 340.959 121.506 338.266C104.276 331.205 81.1077 328.698 63.9902 330.208C58.2778 330.713 48.43 332.043 41.6043 336.012C37.4624 338.419 34.4471 341.817 34.6592 346.79C34.9309 353.054 39.3445 356.751 45.0834 359.065C54.4606 362.835 67.3435 362.941 74.1428 363.101C87.5426 363.406 114.203 358.12 137.894 348.36ZM143.348 272.314C115.899 265.199 82.1084 264.907 66.9856 266.084C60.2129 266.609 47.9794 268.364 39.2981 273.145C33.9368 276.09 29.9143 280.186 29.9409 286.084C29.9607 291.835 34.6261 294.661 40.4711 296.164C50.2392 298.677 63.407 297.368 68.2911 296.876C81.8698 295.499 117.092 286.29 143.348 272.314ZM158.425 217.352C155.641 215.623 152.567 214.008 149.28 212.485C116.198 197.179 61.154 192.465 44.5269 193.289C37.2836 193.648 23.9501 194.06 14.2416 198.236C8.2574 200.802 3.66492 204.825 3.32694 211.454C3.13476 215.251 4.83117 218.376 7.70066 220.976C10.8087 223.802 15.2488 226.003 20.2919 227.758C35.9184 233.197 57.2903 234.214 64.9843 234.148C85.2562 233.982 123.507 228.656 158.425 217.352ZM196.152 109.643C159.817 85.2941 119.823 82.9536 75.276 85.1944C67.7014 85.58 49.232 87.1558 35.4214 92.4951C30.9614 94.2238 26.9918 96.3316 24.0892 98.958C21.3986 101.398 19.6425 104.271 19.4304 107.715C19.1852 111.658 20.9083 114.956 23.8441 117.748C27.0184 120.76 31.5578 123.181 36.7136 125.149C52.6581 131.233 74.4345 132.902 81.8567 132.888C120.83 132.815 160.108 124.57 196.152 109.643Z" fill="url(#paint0_linear_364_409)"/>
<defs>
<linearGradient id="paint0_linear_364_409" x1="130.113" y1="0" x2="130.113" y2="426" gradientUnits="userSpaceOnUse">
<stop stop-color="#84EB86"/>
<stop offset="1" stop-color="#6BCB3A"/>
</linearGradient>
</defs>
</svg>
