<svg width="46" height="50" viewBox="0 0 46 50" fill="none" xmlns="http://www.w3.org/2000/svg">
<path fill-rule="evenodd" clip-rule="evenodd" d="M18.0686 10.0095C17.9341 9.20189 17.8328 8.40344 17.7674 7.6049C17.6688 6.40708 17.7298 5.20011 17.6948 4.0023C17.6796 3.49414 17.6195 2.1693 17.6437 1.97874C17.8633 0.318132 19.1872 0.0640196 19.5744 0.0186478C19.7617 -0.00857519 21.6852 -0.226262 22.1002 1.93343C22.6093 4.57407 22.7725 7.23281 22.5923 9.83715C23.0127 12.0513 23.7315 14.2563 24.6807 16.2527C28.4579 24.1927 35.6553 24.9641 43.4533 24.8915C44.6526 24.8733 45.6484 25.8261 45.7112 27.033C45.7739 28.249 44.8812 29.3016 43.6873 29.4105C39.3285 29.837 31.5949 33.376 28.9212 37.0602C28.3619 37.8315 28.0366 39.6918 27.6063 41.5157C27.0058 44.0475 26.2914 46.552 25.491 47.6046C25.3709 47.7679 23.9108 49.4376 23.4752 49.6826C22.4283 50.2634 21.5902 49.9276 21.1143 49.6191C20.6383 49.3105 20.0996 48.7025 19.8845 47.6953C19.6595 46.6427 19.8496 44.4829 19.8146 44.0201C19.6873 42.3414 19.3557 39.0474 18.679 36.2162C18.3142 34.6917 17.9252 33.2852 17.2816 32.5865C14.8992 30.0003 11.0898 30.3815 7.88188 30.808C7.51349 30.8533 7.1451 30.9078 6.77761 30.9532C5.47167 31.3434 4.08503 31.6337 2.61954 31.8061C0.40652 32.0693 0.0426375 30.0094 0.0229185 29.8733C-0.0183124 29.5738 -0.1716 28.0312 1.49646 27.4142C1.67841 27.3506 3.02111 27.0512 3.53829 26.9332C4.25893 26.7699 4.98763 26.6429 5.71903 26.5249C13.2741 24.1474 17.3775 17.4686 18.0686 10.0095ZM20.6616 18.2582C23.5137 24.2291 27.8421 27.1147 32.9726 28.4214H32.9717C29.7683 30.1183 26.8543 32.2417 25.3099 34.3742C24.7237 35.1818 24.186 36.8061 23.7011 38.63C23.4384 36.9331 23.0835 35.1273 22.6147 33.5846C22.0814 31.8242 21.3634 30.3634 20.5621 29.4922C19.0151 27.8135 17.0736 26.8788 14.9861 26.416C17.485 24.1746 19.3799 21.3797 20.6616 18.2582Z" fill="#6BCB3A"/>
</svg>
