<svg width="106" height="100" viewBox="0 0 106 100" fill="none" xmlns="http://www.w3.org/2000/svg">
<path fill-rule="evenodd" clip-rule="evenodd" d="M49.5331 15.2637C61.3851 5.74411 74.9216 -1.20248 88.3341 0.174173C93.2603 0.680975 97.8209 2.7959 102.501 4.90108C102.912 5.08626 103.116 5.6223 102.954 6.09499C102.794 6.56768 102.329 6.80401 101.92 6.61883C97.3818 4.577 92.9665 2.50109 88.1937 2.01134C74.9836 0.654186 61.6789 7.65437 50.0456 17.0984C50.0848 17.2349 50.1256 17.3713 50.1664 17.5078C51.0642 20.5072 50.4945 24.8808 49.0271 29.4761C46.8986 36.1474 42.9305 43.3157 39.3624 47.275C37.717 49.1025 36.1239 50.2501 34.823 50.4913C33.7391 50.6935 32.8087 50.3524 32.0905 49.3851C31.4996 48.5859 31.1618 47.5674 31.0622 46.3735C30.93 44.78 31.2271 42.8454 31.8522 40.7402C34.1652 32.9506 40.9604 22.7 44.6444 19.4107C45.7984 18.38 46.972 17.3689 48.1669 16.3797C47.9286 15.5171 47.6984 14.6936 47.416 13.9333C47.0014 12.8174 46.4775 11.8477 45.5928 11.1484C43.9605 9.85702 42.0034 9.63771 40.0022 9.97396C36.798 10.51 33.4845 12.4592 31.041 14.1307C17.2972 23.5309 10.5118 39.8436 6.86201 56.2099C3.16979 72.7613 2.68663 89.3884 1.59463 99.1955C1.5375 99.6998 1.13596 100.058 0.698512 99.9922C0.26106 99.9289 -0.0490715 99.4659 0.00642607 98.9615C1.10495 89.1008 1.60116 72.3885 5.31134 55.7518C9.06395 38.9299 16.0975 22.2079 30.2248 12.5445C32.8251 10.7683 36.3622 8.72158 39.7721 8.14899C42.1829 7.74696 44.5318 8.07347 46.497 9.62799C47.6429 10.5344 48.3513 11.7673 48.8867 13.2073C49.1267 13.8529 49.3323 14.5449 49.5331 15.2637ZM48.6859 18.2192C49.4433 20.9092 48.8247 24.7711 47.5254 28.8402C45.4801 35.2507 41.6802 42.1437 38.2524 45.9496C37.1033 47.2239 36.0113 48.1473 35.0466 48.5299C34.3496 48.8076 33.7408 48.7735 33.3082 48.1888C32.8104 47.5163 32.6227 46.5977 32.6308 45.5256C32.639 44.2903 32.9116 42.8649 33.367 41.3347C35.5853 33.8643 42.0915 24.0206 45.6238 20.8678C46.6293 19.9711 47.6511 19.0866 48.6859 18.2192Z" fill="#6BCB3A"/>
<path fill-rule="evenodd" clip-rule="evenodd" d="M103.81 7.74364C103.756 7.32212 103.573 6.78608 103.363 6.22324C102.888 4.94893 102.212 3.58933 101.911 2.93146C101.707 2.4807 101.858 1.92273 102.249 1.68639C102.641 1.45004 103.124 1.62547 103.33 2.07623C103.696 2.88029 104.59 4.68336 105.07 6.17696C105.316 6.94447 105.449 7.65107 105.422 8.16031C105.395 8.6598 105.218 8.99603 104.967 9.23481C104.703 9.48577 104.293 9.63442 103.746 9.61492C103.145 9.59299 102.288 9.37369 101.347 9.29328C100.557 9.22506 99.6932 9.25432 98.908 9.70751C98.513 9.93655 98.0315 9.75379 97.834 9.29816C97.6365 8.84496 97.7948 8.28944 98.1898 8.06284C99.6621 7.21005 101.334 7.39524 102.654 7.61453C103.047 7.68031 103.536 7.72415 103.81 7.74364Z" fill="#6BCB3A"/>
</svg>
