<svg width="500" height="14" viewBox="0 0 500 14" fill="none" xmlns="http://www.w3.org/2000/svg">
<path fill-rule="evenodd" clip-rule="evenodd" d="M165.76 1.19079C110.623 0.911455 55.2607 1.93229 1.89214 6.21881C0.939958 6.29499 0.544673 6.44482 0.466767 6.47911C0.0108721 6.68226 -0.0382644 6.8981 0.0194438 7.07586C0.0540688 7.18378 0.287889 7.6396 1.56613 7.68658C2.44906 7.71832 8.71608 7.49613 11.1341 7.43899C22.517 7.17109 33.877 6.78891 45.2311 6.34705C70.9747 5.34906 96.6837 4.48567 122.468 3.69972C136.944 3.25787 151.426 2.89218 165.899 2.59253C200.717 2.77156 235.449 3.46991 269.531 4.1911C255.984 4.55804 243.537 4.93006 233.216 5.17131C215.811 5.57761 198.438 6.05755 181.068 6.68986C172.143 7.01364 163.23 7.36536 154.323 7.78055C153.336 7.82753 151.088 7.87577 150 7.93291C149.539 7.95576 149.204 7.99259 149.054 8.01798C148.113 8.17797 147.995 8.50554 147.983 8.6706C147.978 8.7709 148.056 9.31815 149.643 9.42481C223.431 14.43 300.414 8.60712 374.468 13.4726C375.337 13.5298 376.15 13.2657 376.28 12.8822C376.41 12.5 375.81 12.142 374.939 12.0848C305.192 7.50247 232.846 12.4023 163.011 8.80519C169.113 8.5449 175.219 8.31001 181.33 8.08781C198.669 7.45677 216.01 6.9781 233.386 6.57179C250.872 6.16422 274.509 5.36811 299.251 4.86657C320.485 5.38715 341.707 5.97121 362.944 6.4664C371.903 6.67463 380.865 6.84731 389.821 7.05935C393.503 7.14569 402.976 7.50755 404.349 7.37297C405.417 7.26758 405.674 6.93112 405.737 6.76225C405.804 6.57941 405.763 6.35212 405.279 6.13501C405.129 6.06644 404.678 5.92424 403.755 5.80743C378.782 2.65983 337.89 2.70935 299.592 3.4699C291.354 3.26675 283.116 3.07375 274.875 2.8998C256.01 2.49985 236.938 2.09862 217.756 1.78246C271.814 1.19459 325.898 1.36346 379.997 1.78882C402.711 1.96784 463.936 3.0471 488.05 4.00064C487.755 4.13396 487.582 4.31934 487.602 4.52122C487.643 4.90721 488.39 5.20686 489.27 5.18908C494.244 5.08751 497.121 4.958 498.261 4.82468C498.971 4.74215 499.357 4.6101 499.536 4.52376C499.975 4.31553 500.056 4.09205 499.969 3.88001C499.914 3.74796 499.779 3.60322 499.467 3.4699C499.259 3.37848 498.752 3.23882 497.886 3.14359C488.407 2.10625 407.099 0.599097 380.054 0.385787C308.586 -0.175421 237.146 -0.289683 165.76 1.19079ZM384.423 5.53063C370.457 4.69643 354.086 4.40313 337.007 4.42218C345.706 4.64438 354.409 4.8615 363.114 5.06465C370.215 5.23099 377.319 5.37318 384.423 5.53063ZM99.8923 3.00266C81.57 3.59688 63.2677 4.23934 44.9511 4.95038C42.8361 5.03164 40.724 5.11163 38.609 5.19035C58.8646 4.09841 79.3309 3.40388 99.8923 3.00266Z" fill="#6BCB3A"/>
</svg>
