<svg width="551" height="20" viewBox="0 0 551 20" fill="none" xmlns="http://www.w3.org/2000/svg">
<mask id="path-1-inside-1_323_410" fill="white">
<path fill-rule="evenodd" clip-rule="evenodd" d="M234.016 1.91541C208.13 2.5718 182.547 3.3789 157.601 4.26126C122.285 5.50948 86.984 6.80076 51.8954 8.84526C40.8503 9.49089 29.6339 9.89977 18.6578 10.7068C11.7677 11.2126 2.63164 11.9334 1.43264 12.0841C0.805517 12.1701 0.531924 12.2994 0.443519 12.3424C-0.17808 12.6437 -0.0646612 12.9341 0.286197 13.1601C0.427093 13.257 0.783377 13.4938 1.77241 13.5261C67.9161 15.732 135.552 11.4278 201.776 10.9758C316.619 10.2011 434.944 13.2786 548.877 19.9932C549.871 20.047 550.838 19.7779 550.976 19.3797C551.142 18.9924 550.424 18.6157 549.429 18.5619C435.304 11.8366 316.785 8.7483 201.72 9.53382C140.002 9.95348 77.066 13.7305 15.2625 12.4392C16.6825 12.3316 18.075 12.224 19.3458 12.1271C30.2776 11.3201 41.4471 10.922 52.448 10.2764C87.462 8.23186 122.692 6.9406 157.96 5.70314C201.72 4.15362 247.387 2.8193 293.413 2.19519C309.879 2.29204 326.289 2.38892 342.699 2.50729C378.199 2.76554 413.865 3.51878 449.283 4.53028C459.947 4.84233 470.61 5.16512 481.274 5.44489C484.81 5.54174 493.927 5.82147 495.198 5.79994C496.773 5.77842 497.077 5.26197 497.104 5.17588C497.187 4.98219 497.132 4.71316 496.358 4.48719C496.275 4.45491 495.778 4.34724 494.673 4.28267C430.275 0.473443 361.513 -0.161329 293.468 0.753316C221.694 0.355177 149.644 0.182929 78.0524 0C77.0274 0 76.1903 0.322863 76.1821 0.721003C76.1765 1.11914 77.0025 1.44202 78.0274 1.45278C129.866 1.5819 181.967 1.71096 234.016 1.91541Z"/>
</mask>
<path fill-rule="evenodd" clip-rule="evenodd" d="M234.016 1.91541C208.13 2.5718 182.547 3.3789 157.601 4.26126C122.285 5.50948 86.984 6.80076 51.8954 8.84526C40.8503 9.49089 29.6339 9.89977 18.6578 10.7068C11.7677 11.2126 2.63164 11.9334 1.43264 12.0841C0.805517 12.1701 0.531924 12.2994 0.443519 12.3424C-0.17808 12.6437 -0.0646612 12.9341 0.286197 13.1601C0.427093 13.257 0.783377 13.4938 1.77241 13.5261C67.9161 15.732 135.552 11.4278 201.776 10.9758C316.619 10.2011 434.944 13.2786 548.877 19.9932C549.871 20.047 550.838 19.7779 550.976 19.3797C551.142 18.9924 550.424 18.6157 549.429 18.5619C435.304 11.8366 316.785 8.7483 201.72 9.53382C140.002 9.95348 77.066 13.7305 15.2625 12.4392C16.6825 12.3316 18.075 12.224 19.3458 12.1271C30.2776 11.3201 41.4471 10.922 52.448 10.2764C87.462 8.23186 122.692 6.9406 157.96 5.70314C201.72 4.15362 247.387 2.8193 293.413 2.19519C309.879 2.29204 326.289 2.38892 342.699 2.50729C378.199 2.76554 413.865 3.51878 449.283 4.53028C459.947 4.84233 470.61 5.16512 481.274 5.44489C484.81 5.54174 493.927 5.82147 495.198 5.79994C496.773 5.77842 497.077 5.26197 497.104 5.17588C497.187 4.98219 497.132 4.71316 496.358 4.48719C496.275 4.45491 495.778 4.34724 494.673 4.28267C430.275 0.473443 361.513 -0.161329 293.468 0.753316C221.694 0.355177 149.644 0.182929 78.0524 0C77.0274 0 76.1903 0.322863 76.1821 0.721003C76.1765 1.11914 77.0025 1.44202 78.0274 1.45278C129.866 1.5819 181.967 1.71096 234.016 1.91541Z" fill="#6BCB3A"/>
<path d="M234.016 1.91541L234.143 6.9138L234.035 -3.08455L234.016 1.91541ZM157.601 4.26126L157.777 9.25814L157.777 9.25814L157.601 4.26126ZM51.8954 8.84526L51.6046 3.85373L51.6037 3.85378L51.8954 8.84526ZM18.6578 10.7068L19.0238 15.6934L19.0245 15.6934L18.6578 10.7068ZM1.43264 12.0841L0.809319 7.12307L0.780977 7.12663L0.752677 7.13051L1.43264 12.0841ZM0.443519 12.3424L2.62438 16.8418L2.63225 16.8379L0.443519 12.3424ZM0.286197 13.1601L3.11842 9.03962L3.0566 8.99713L2.99354 8.95651L0.286197 13.1601ZM1.77241 13.5261L1.93907 8.52884L1.93552 8.52873L1.77241 13.5261ZM201.776 10.9758L201.742 5.97594L201.741 5.97594L201.776 10.9758ZM548.877 19.9932L548.582 24.9845L548.594 24.9852L548.606 24.9859L548.877 19.9932ZM550.976 19.3797L546.379 17.4127L546.31 17.5746L546.252 17.7408L550.976 19.3797ZM549.429 18.5619L549.135 23.5533L549.147 23.554L549.159 23.5546L549.429 18.5619ZM201.72 9.53382L201.754 14.5337L201.754 14.5337L201.72 9.53382ZM15.2625 12.4392L14.8847 7.45354L15.158 17.4382L15.2625 12.4392ZM19.3458 12.1271L18.9777 7.1407L18.9659 7.1416L19.3458 12.1271ZM52.448 10.2764L52.1565 5.28487L52.1551 5.28495L52.448 10.2764ZM157.96 5.70314L158.135 10.7001L158.137 10.7L157.96 5.70314ZM293.413 2.19519L293.442 -2.80472L293.394 -2.80501L293.345 -2.80435L293.413 2.19519ZM342.699 2.50729L342.735 -2.49258L342.735 -2.49258L342.699 2.50729ZM449.283 4.53028L449.429 -0.467587L449.425 -0.467687L449.283 4.53028ZM481.274 5.44489L481.411 0.446765L481.405 0.446614L481.274 5.44489ZM495.198 5.79994L495.13 0.800412L495.122 0.800523L495.113 0.800662L495.198 5.79994ZM497.104 5.17588L492.507 3.20889L492.415 3.4246L492.343 3.64801L497.104 5.17588ZM496.358 4.48719L494.544 9.14625L494.747 9.22543L494.956 9.2866L496.358 4.48719ZM494.673 4.28267L494.378 9.27395L494.381 9.27416L494.673 4.28267ZM293.468 0.753316L293.441 5.75324L293.488 5.7535L293.536 5.75286L293.468 0.753316ZM78.0524 0L78.0652 -5H78.0524V0ZM76.1821 0.721003L71.1831 0.616942L71.1828 0.63428L71.1825 0.651621L76.1821 0.721003ZM78.0274 1.45278L77.9749 6.4525L77.995 6.45271L78.015 6.45276L78.0274 1.45278ZM234.016 1.91541L233.889 -3.08299C207.983 -2.42608 182.383 -1.61843 157.424 -0.735614L157.601 4.26126L157.777 9.25814C182.711 8.37623 208.276 7.56968 234.143 6.9138L234.016 1.91541ZM157.601 4.26126L157.424 -0.735618C122.112 0.512474 86.7577 1.80547 51.6046 3.85373L51.8954 8.84526L52.1863 13.8368C87.2104 11.7961 122.458 10.5065 157.777 9.25814L157.601 4.26126ZM51.8954 8.84526L51.6037 3.85378C40.7304 4.48937 29.2931 4.91133 18.2912 5.72027L18.6578 10.7068L19.0245 15.6934C29.9746 14.8882 40.9702 14.4924 52.1872 13.8367L51.8954 8.84526ZM18.6578 10.7068L18.2918 5.72023C11.4967 6.219 2.17456 6.95153 0.809319 7.12307L1.43264 12.0841L2.05596 17.0451C3.08871 16.9153 12.0387 16.2061 19.0238 15.6934L18.6578 10.7068ZM1.43264 12.0841L0.752677 7.13051C-0.418895 7.29133 -1.20021 7.5816 -1.74521 7.84694L0.443519 12.3424L2.63225 16.8379C2.60517 16.8511 2.52934 16.8875 2.43433 16.9262C2.34541 16.9624 2.26743 16.9896 2.20335 17.0092C2.07688 17.0481 2.03624 17.0481 2.11261 17.0376L1.43264 12.0841ZM0.443519 12.3424L-1.73734 7.84312C-2.17467 8.0551 -2.84558 8.43188 -3.47267 9.07506C-4.13859 9.75807 -4.9309 10.9412 -4.99589 12.5816C-5.05981 14.1948 -4.38522 15.398 -3.85021 16.0762C-3.33378 16.7308 -2.76813 17.1402 -2.42115 17.3637L0.286197 13.1601L2.99354 8.95651C3.16509 9.067 3.585 9.3554 4.00091 9.88262C4.43539 10.4334 5.0547 11.5027 4.99627 12.9775C4.93676 14.4793 4.21072 15.5192 3.68739 16.056C3.2029 16.5529 2.75091 16.7804 2.62438 16.8418L0.443519 12.3424ZM0.286197 13.1601L-2.54603 17.2806C-2.24858 17.4851 -1.68623 17.8437 -0.843431 18.1195C-0.0777497 18.37 0.740823 18.4951 1.6093 18.5234L1.77241 13.5261L1.93552 8.52873C1.81496 8.52479 1.96088 8.51535 2.26594 8.61515C2.42254 8.66638 2.59583 8.73819 2.77679 8.83392C2.8651 8.88063 2.94343 8.9268 3.01002 8.96865C3.0741 9.00891 3.12111 9.04146 3.11842 9.03962L0.286197 13.1601ZM1.77241 13.5261L1.60575 18.5233C67.8247 20.7317 136.029 16.4246 201.81 15.9757L201.776 10.9758L201.741 5.97594C135.075 6.43091 68.0075 10.7322 1.93907 8.52885L1.77241 13.5261ZM201.776 10.9758L201.809 15.9757C316.544 15.2017 434.76 18.2764 548.582 24.9845L548.877 19.9932L549.171 15.0018C435.129 8.28078 316.695 5.20045 201.742 5.97594L201.776 10.9758ZM548.877 19.9932L548.606 24.9859C549.586 25.0389 550.642 24.9452 551.63 24.6609C552.117 24.5208 552.767 24.2832 553.424 23.8628C554.006 23.4905 555.144 22.6221 555.7 21.0186L550.976 19.3797L546.252 17.7408C546.74 16.3364 547.704 15.651 548.035 15.4394C548.441 15.1797 548.761 15.0807 548.865 15.0509C548.997 15.0128 549.075 15.0041 549.094 15.0021C549.118 14.9997 549.132 14.9997 549.147 15.0005L548.877 19.9932ZM550.976 19.3797L555.573 21.3467C556.364 19.497 555.97 17.6388 555.123 16.3502C554.418 15.277 553.498 14.7013 552.97 14.423C551.855 13.8349 550.66 13.6212 549.699 13.5692L549.429 18.5619L549.159 23.5546C549.133 23.5532 549.064 23.5478 548.951 23.5208C548.854 23.4977 548.619 23.4337 548.306 23.2685C548.061 23.1395 547.352 22.7339 546.766 21.842C546.038 20.7346 545.671 19.0688 546.379 17.4127L550.976 19.3797ZM549.429 18.5619L549.723 13.5706C435.488 6.83879 316.86 3.74767 201.686 4.53394L201.72 9.53382L201.754 14.5337C316.71 13.7489 435.119 16.8344 549.135 23.5533L549.429 18.5619ZM201.72 9.53382L201.686 4.53393C139.513 4.95669 77.1744 8.73168 15.3669 7.44033L15.2625 12.4392L15.158 17.4382C76.9577 18.7293 140.491 14.9503 201.754 14.5337L201.72 9.53382ZM15.2625 12.4392L15.6403 17.4249C17.0586 17.3175 18.4653 17.2087 19.7257 17.1127L19.3458 12.1271L18.9659 7.1416C17.6846 7.23924 16.3064 7.3458 14.8847 7.45354L15.2625 12.4392ZM19.3458 12.1271L19.7139 17.1136C30.623 16.3082 41.5578 15.9241 52.7409 15.2678L52.448 10.2764L52.1551 5.28495C41.3363 5.91989 29.9323 6.33199 18.9777 7.14072L19.3458 12.1271ZM52.448 10.2764L52.7395 15.2679C87.6885 13.2272 122.865 11.9376 158.135 10.7001L157.96 5.70314L157.784 0.706212C122.518 1.94359 87.2356 3.23657 52.1565 5.28487L52.448 10.2764ZM157.96 5.70314L158.137 10.7C201.877 9.15119 247.505 7.81817 293.481 7.19473L293.413 2.19519L293.345 -2.80435C247.269 -2.17956 201.563 -0.843951 157.783 0.706268L157.96 5.70314ZM293.413 2.19519L293.384 7.1951C309.85 7.29195 326.256 7.38882 342.663 7.50716L342.699 2.50729L342.735 -2.49258C326.321 -2.61097 309.907 -2.70788 293.442 -2.80472L293.413 2.19519ZM342.699 2.50729L342.663 7.50716C378.117 7.76508 413.747 8.51743 449.14 9.52824L449.283 4.53028L449.425 -0.467687C413.984 -1.47986 378.281 -2.234 342.735 -2.49258L342.699 2.50729ZM449.283 4.53028L449.136 9.52814C459.793 9.83999 470.469 10.1631 481.143 10.4432L481.274 5.44489L481.405 0.446614C470.751 0.167101 460.1 -0.15533 449.429 -0.467586L449.283 4.53028ZM481.274 5.44489L481.137 10.443C484.524 10.5358 493.864 10.8233 495.283 10.7992L495.198 5.79994L495.113 0.800662C493.99 0.819681 485.097 0.547717 481.411 0.446768L481.274 5.44489ZM495.198 5.79994L495.266 10.7995C497.53 10.7685 500.825 9.94437 501.865 6.70376L497.104 5.17588L492.343 3.64801C492.617 2.79534 493.056 2.22104 493.366 1.88989C493.734 1.49621 494.116 1.2352 494.438 1.069C495.059 0.748499 495.418 0.796478 495.13 0.800412L495.198 5.79994ZM497.104 5.17588L501.701 7.14287C501.962 6.53348 502.217 5.62226 502.106 4.51926C501.991 3.36722 501.513 2.38344 500.887 1.63521C499.81 0.348129 498.41 -0.122292 497.76 -0.312219L496.358 4.48719L494.956 9.2866C494.928 9.27826 494.736 9.22172 494.462 9.07572C494.199 8.93544 493.7 8.62819 493.218 8.05207C492.692 7.42356 492.261 6.55748 492.156 5.51742C492.057 4.5264 492.288 3.72144 492.507 3.20889L497.104 5.17588ZM496.358 4.48719L498.173 -0.171872C497.521 -0.425634 496.83 -0.520677 496.607 -0.552578C496.172 -0.614736 495.631 -0.669912 494.965 -0.708816L494.673 4.28267L494.381 9.27416C494.821 9.29982 495.08 9.33076 495.191 9.34665C495.248 9.35482 495.248 9.35643 495.201 9.34681C495.179 9.34219 495.125 9.3307 495.049 9.31083C495.01 9.3008 494.953 9.28513 494.881 9.26341C494.845 9.25233 494.799 9.23792 494.746 9.22007C494.695 9.20267 494.625 9.17815 494.544 9.14625L496.358 4.48719ZM494.673 4.28267L494.968 -0.708603C430.406 -4.52759 361.512 -5.16177 293.401 -4.24623L293.468 0.753316L293.536 5.75286C361.513 4.83911 430.145 5.47447 494.378 9.27395L494.673 4.28267ZM293.468 0.753316L293.496 -4.24661C221.713 -4.6448 149.655 -4.81706 78.0652 -4.99998L78.0524 0L78.0396 4.99998C149.633 5.18292 221.676 5.35515 293.441 5.75324L293.468 0.753316ZM78.0524 0V-5C77.08 -5 75.9784 -4.85547 74.9373 -4.45405C74.4319 -4.25921 73.6901 -3.90843 72.9853 -3.27291C72.2844 -2.64085 71.2239 -1.33967 71.1831 0.616942L76.1821 0.721003L81.181 0.825065C81.1444 2.5826 80.1916 3.69412 79.682 4.15367C79.1686 4.61668 78.7016 4.81209 78.5347 4.87645C78.3258 4.95699 78.1855 4.98299 78.1372 4.9909C78.08 5.00028 78.0536 5 78.0524 5V0ZM76.1821 0.721003L71.1825 0.651621C71.155 2.63332 72.1938 3.98693 72.9138 4.65838C73.6243 5.32104 74.3787 5.68404 74.8822 5.88283C75.9221 6.29339 77.0197 6.44247 77.9749 6.4525L78.0274 1.45278L78.0799 -3.54695C78.0102 -3.54768 78.1823 -3.56542 78.5544 -3.41851C78.724 -3.35156 79.2089 -3.1446 79.7341 -2.65479C80.2688 -2.15619 81.2063 -0.992241 81.1816 0.790386L76.1821 0.721003ZM78.0274 1.45278L78.015 6.45276C129.854 6.58189 181.952 6.71093 233.996 6.91537L234.016 1.91541L234.035 -3.08455C181.983 -3.28902 129.878 -3.41808 78.0399 -3.54721L78.0274 1.45278Z" fill="#6BCB3A" mask="url(#path-1-inside-1_323_410)"/>
</svg>
