<svg width="555" height="36" viewBox="0 0 555 36" fill="none" xmlns="http://www.w3.org/2000/svg">
<path fill-rule="evenodd" clip-rule="evenodd" d="M263.14 0.241738C228.707 0.973343 162.591 7.69873 100.399 16.7959C95.3836 17.5296 88.7766 18.4967 85.7165 18.9451C44.4524 24.9917 22.2602 28.8049 6.7263 32.5179C0.663903 33.9671 0.143068 34.1427 0.303492 34.6842C0.53779 35.4743 1.52413 35.3523 12.7732 33.1413C24.4137 30.8536 34.8471 29.1924 63.4612 25.0711C159.096 11.2966 203.764 6.24689 253.867 3.54592C263.686 3.01657 279.368 3.10876 279.368 3.69573C279.368 4.47978 269.532 7.15372 246.758 12.5607C218.741 19.2126 201.685 23.6252 200.174 24.6125C197.593 26.2995 200.432 27.5169 206.575 27.3574C210.085 27.2662 210.882 27.1972 226.976 25.5919C273.182 20.9827 302.712 18.6434 342.734 16.4218C403.681 13.0386 442.514 11.7905 515.522 10.868C541.755 10.5367 543.112 10.4904 547.954 9.76486C549.82 9.48519 552.049 9.21187 552.908 9.15735C554.92 9.02986 554.895 8.86675 552.845 8.74649C551.953 8.69404 549.901 8.44378 548.286 8.19026C544.304 7.56518 541.664 7.53252 518.922 7.82682C442.681 8.81327 402.564 10.0748 344.434 13.3139C313.862 15.0173 300.239 15.9429 277.977 17.8292C262.758 19.1187 222.588 22.8727 216.961 23.5312C213.891 23.8905 227.218 20.5011 250.627 14.9693C280.239 7.97175 286.134 6.07123 286.162 3.51461C286.193 0.631624 280.811 -0.133519 263.14 0.241738Z" fill="#6BCB3A"/>
</svg>
