<svg width="44" height="45" viewBox="0 0 44 45" fill="none" xmlns="http://www.w3.org/2000/svg">
<path d="M4.8927 8.68927C4.07196 8.68927 3.28484 9.01531 2.70449 9.59566C2.12413 10.176 1.7981 10.9631 1.7981 11.7839V39.6353C1.7981 40.4561 2.12413 41.2432 2.70449 41.8236C3.28484 42.4039 4.07196 42.7299 4.8927 42.7299H38.9334C39.7541 42.7299 40.5412 42.4039 41.1216 41.8236C41.7019 41.2432 42.028 40.4561 42.028 39.6353V11.7839C42.028 10.9631 41.7019 10.176 41.1216 9.59566C40.5412 9.01531 39.7541 8.68927 38.9334 8.68927H32.7442" stroke="#000001" stroke-width="3.44828" stroke-linecap="round" stroke-linejoin="round"/>
<path d="M11.082 2.5V14.8784" stroke="#000001" stroke-width="3.44828" stroke-linecap="round" stroke-linejoin="round"/>
<path d="M32.7441 2.5V14.8784" stroke="#000001" stroke-width="3.44828" stroke-linecap="round" stroke-linejoin="round"/>
<path d="M11.082 8.68927H26.5551" stroke="#000001" stroke-width="3.44828" stroke-linecap="round" stroke-linejoin="round"/>
<path d="M11.0817 25.7095C11.9363 25.7095 12.629 25.0168 12.629 24.1622C12.629 23.3077 11.9363 22.6149 11.0817 22.6149C10.2272 22.6149 9.53442 23.3077 9.53442 24.1622C9.53442 25.0168 10.2272 25.7095 11.0817 25.7095Z" stroke="#000001" stroke-width="3.44828" stroke-linecap="round" stroke-linejoin="round"/>
<path d="M21.9135 25.7095C22.7681 25.7095 23.4608 25.0168 23.4608 24.1622C23.4608 23.3077 22.7681 22.6149 21.9135 22.6149C21.059 22.6149 20.3662 23.3077 20.3662 24.1622C20.3662 25.0168 21.059 25.7095 21.9135 25.7095Z" stroke="#000001" stroke-width="3.44828" stroke-linecap="round" stroke-linejoin="round"/>
<path d="M32.7441 25.7095C33.5986 25.7095 34.2914 25.0168 34.2914 24.1622C34.2914 23.3077 33.5986 22.6149 32.7441 22.6149C31.8895 22.6149 31.1968 23.3077 31.1968 24.1622C31.1968 25.0168 31.8895 25.7095 32.7441 25.7095Z" stroke="#000001" stroke-width="3.44828" stroke-linecap="round" stroke-linejoin="round"/>
<path d="M11.0817 34.9933C11.9363 34.9933 12.629 34.3006 12.629 33.446C12.629 32.5915 11.9363 31.8987 11.0817 31.8987C10.2272 31.8987 9.53442 32.5915 9.53442 33.446C9.53442 34.3006 10.2272 34.9933 11.0817 34.9933Z" stroke="#000001" stroke-width="3.44828" stroke-linecap="round" stroke-linejoin="round"/>
</svg>
