<svg width="45" height="44" viewBox="0 0 45 44" fill="none" xmlns="http://www.w3.org/2000/svg">
<path d="M5.83154 26.8148V40.4919C5.83154 40.8949 5.99165 41.2815 6.27664 41.5664C6.56164 41.8514 6.94817 42.0115 7.35122 42.0115H37.7447C38.1477 42.0115 38.5343 41.8514 38.8192 41.5664C39.1042 41.2815 39.2643 40.8949 39.2643 40.4919V26.8148" stroke="#000001" stroke-width="3.44828" stroke-linecap="round" stroke-linejoin="round"/>
<path d="M25.5872 26.8148V42.0115" stroke="#000001" stroke-width="3.44828" stroke-linecap="round" stroke-linejoin="round"/>
<path d="M5.83154 31.3738H25.5873" stroke="#000001" stroke-width="3.44828" stroke-linecap="round" stroke-linejoin="round"/>
<path d="M2.79224 13.1377L7.35125 2.5H37.7447L42.3037 13.1377H2.79224Z" stroke="#000001" stroke-width="3.44828" stroke-linecap="round" stroke-linejoin="round"/>
<path d="M15.7101 13.1377V16.177C15.7101 17.7892 15.0696 19.3353 13.9297 20.4753C12.7897 21.6153 11.2435 22.2557 9.63137 22.2557H8.78035C7.16818 22.2557 5.62204 21.6153 4.48207 20.4753C3.34209 19.3353 2.70166 17.7892 2.70166 16.177V13.1377" stroke="#000001" stroke-width="3.44828" stroke-linecap="round" stroke-linejoin="round"/>
<path d="M29.3863 13.1377V16.177C29.3863 17.7892 28.7459 19.3353 27.6059 20.4753C26.4659 21.6153 24.9198 22.2557 23.3076 22.2557H21.7879C20.1758 22.2557 18.6296 21.6153 17.4896 20.4753C16.3497 19.3353 15.7092 17.7892 15.7092 16.177V13.1377" stroke="#000001" stroke-width="3.44828" stroke-linecap="round" stroke-linejoin="round"/>
<path d="M42.3037 13.1377V16.177C42.3037 17.7892 41.6633 19.3353 40.5233 20.4753C39.3833 21.6153 37.8372 22.2557 36.225 22.2557H35.4652C33.853 22.2557 32.3069 21.6153 31.1669 20.4753C30.0269 19.3353 29.3865 17.7892 29.3865 16.177V13.1377" stroke="#000001" stroke-width="3.44828" stroke-linecap="round" stroke-linejoin="round"/>
</svg>
