<svg width="45" height="45" viewBox="0 0 45 45" fill="none" xmlns="http://www.w3.org/2000/svg">
<path d="M39.6577 11.7838H5.61707C3.90796 11.7838 2.52246 13.1693 2.52246 14.8784V39.6353C2.52246 41.3444 3.90796 42.7299 5.61707 42.7299H39.6577C41.3668 42.7299 42.7523 41.3444 42.7523 39.6353V14.8784C42.7523 13.1693 41.3668 11.7838 39.6577 11.7838Z" stroke="#000001" stroke-width="3.44828" stroke-linecap="round" stroke-linejoin="round"/>
<path d="M16.4481 2.5H28.8265C29.6473 2.5 30.4344 2.82604 31.0148 3.40639C31.5951 3.98674 31.9212 4.77387 31.9212 5.59461V11.7838H13.3535V5.59461C13.3535 4.77387 13.6796 3.98674 14.2599 3.40639C14.8403 2.82604 15.6274 2.5 16.4481 2.5Z" stroke="#000001" stroke-width="3.44828" stroke-linecap="round" stroke-linejoin="round"/>
<path d="M11.8066 22.6149H33.4689" stroke="#000001" stroke-width="3.44828" stroke-linecap="round" stroke-linejoin="round"/>
<path d="M11.8066 31.8987H33.4689" stroke="#000001" stroke-width="3.44828" stroke-linecap="round" stroke-linejoin="round"/>
</svg>
