<svg width="51" height="49" viewBox="0 0 51 49" fill="none" xmlns="http://www.w3.org/2000/svg">
<path d="M40.6175 3.67242L33.284 10.8077C32.7197 11.3567 32.2721 12.0084 31.9666 12.7257C31.6612 13.443 31.504 14.2118 31.504 14.9882V16.3608C31.5041 16.555 31.4648 16.7473 31.3884 16.9267C31.312 17.1061 31.2 17.2691 31.0588 17.4064L29.9851 18.451M33.023 21.4068L34.0966 20.3621C34.2377 20.2247 34.4053 20.1158 34.5897 20.0414C34.774 19.9671 34.9717 19.9289 35.1713 19.9289H36.582C37.3799 19.9289 38.1701 19.776 38.9073 19.4788C39.6446 19.1816 40.3144 18.7461 40.8786 18.197L48.2121 11.0617M44.4148 7.36708L36.8202 14.7564M21.6311 34.7075L12.1645 43.97C11.4524 44.6626 10.4867 45.0517 9.47982 45.0517C8.47292 45.0517 7.50724 44.6626 6.79514 43.97C6.08326 43.2771 5.68335 42.3376 5.68335 41.3579C5.68335 40.3782 6.08326 39.4386 6.79514 38.7458L14.796 31.0128" stroke="black" stroke-width="3.44828" stroke-linecap="round" stroke-linejoin="round"/>
<path d="M8.5699 4.9599L43.1515 39.2648C43.8077 39.9157 44.1763 40.7986 44.1763 41.7192C44.1763 42.6397 43.8077 43.5226 43.1515 44.1736C42.4952 44.8243 41.6052 45.1898 40.6773 45.1898C39.7494 45.1898 38.8594 44.8243 38.2031 44.1736L29.7555 35.6493C29.2027 35.0924 28.8926 34.3424 28.892 33.5608V33.0459C28.8921 32.6513 28.8131 32.2605 28.6597 31.8964C28.5063 31.5323 28.2815 31.202 27.9984 30.9248L26.9077 29.9257C26.5375 29.5868 26.0872 29.3458 25.5985 29.2247C25.1097 29.1036 24.598 29.1065 24.1106 29.233C23.3421 29.432 22.5344 29.4281 21.7678 29.2218C21.0012 29.0156 20.3023 28.614 19.7404 28.057L11.7218 20.1016C6.96486 15.3827 5.21433 8.25696 8.5699 4.9599Z" stroke="black" stroke-width="3.44828" stroke-linejoin="round"/>
</svg>
