<svg width="50" height="45" viewBox="0 0 50 45" fill="none" xmlns="http://www.w3.org/2000/svg">
<path d="M41.0469 2.73041H46.2867C46.75 2.73041 47.1942 2.91443 47.5218 3.24198C47.8493 3.56954 48.0334 4.0138 48.0334 4.47703V32.423C48.0334 32.8863 47.8493 33.3305 47.5218 33.6581C47.1942 33.9857 46.75 34.1697 46.2867 34.1697H4.36772C3.90449 34.1697 3.46022 33.9857 3.13267 33.6581C2.80511 33.3305 2.62109 32.8863 2.62109 32.423V4.47703C2.62109 4.0138 2.80511 3.56954 3.13267 3.24198C3.46022 2.91443 3.90449 2.73041 4.36772 2.73041H9.6076" stroke="#000001" stroke-width="3.44828" stroke-linecap="round" stroke-linejoin="round"/>
<path d="M21.8346 34.1696L18.3413 42.9027" stroke="#000001" stroke-width="3.44828" stroke-linecap="round" stroke-linejoin="round"/>
<path d="M28.8208 34.1696L32.3141 42.9027" stroke="#000001" stroke-width="3.44828" stroke-linecap="round" stroke-linejoin="round"/>
<path d="M14.8472 42.9028H35.8067" stroke="#000001" stroke-width="3.44828" stroke-linecap="round" stroke-linejoin="round"/>
<path d="M23.4067 3.98749C23.5571 3.60017 23.821 3.26735 24.1639 3.03267C24.5068 2.798 24.9125 2.67242 25.328 2.67242C25.7435 2.67242 26.1493 2.798 26.4922 3.03267C26.835 3.26735 27.0989 3.60017 27.2493 3.98749L29.485 9.71642H35.4585C35.8832 9.72267 36.2963 9.85571 36.6449 10.0985C36.9935 10.3412 37.2615 10.6826 37.4147 11.0788C37.5326 11.4505 37.5427 11.848 37.4438 12.2252C37.3449 12.6024 37.141 12.9437 36.8558 13.2097L31.581 17.8906L33.8166 22.362C34.019 22.7545 34.0876 23.2025 34.0119 23.6376C33.9362 24.0727 33.7205 24.4712 33.3974 24.7723C33.0823 25.0869 32.6737 25.2909 32.2329 25.3539C31.7921 25.4169 31.3428 25.3354 30.9522 25.1217L25.328 22.0476L19.7039 25.1217C19.3133 25.3354 18.8639 25.4169 18.4231 25.3539C17.9823 25.2909 17.5738 25.0869 17.2586 24.7723C16.9356 24.4712 16.7198 24.0727 16.6441 23.6376C16.5685 23.2025 16.637 22.7545 16.8394 22.362L19.0751 17.8906L13.8003 13.2097C13.4881 12.9324 13.2675 12.5668 13.1676 12.1613C13.0678 11.7558 13.0936 11.3296 13.2414 10.9391C13.4157 10.569 13.6928 10.2569 14.0397 10.0401C14.3866 9.82333 14.7886 9.71095 15.1976 9.71642H21.1711L23.4067 3.98749Z" stroke="#000001" stroke-width="3.44828" stroke-linecap="round" stroke-linejoin="round"/>
</svg>
